<?xml version="1.0" encoding="UTF-8" standalone="no"?><!-- Generator: Gravit.io --><svg xmlns="http://www.w3.org/2000/svg" xmlns:xlink="http://www.w3.org/1999/xlink" style="isolation:isolate" viewBox="0 0 3400 1024" width="3400pt" height="1024pt"><defs><clipPath id="_clipPath_nxe2HJFFWBl0kxAmqokullahJ1hXaTrE"><rect width="3400" height="1024"/></clipPath></defs><g clip-path="url(#_clipPath_nxe2HJFFWBl0kxAmqokullahJ1hXaTrE)"><rect x="187" y="171" width="654" height="671" transform="matrix(1,0,0,1,0,0)" fill="rgb(255,255,255)"/><g><path d=" M 1407.405 202.111 L 1233.864 722.735 L 1349.558 722.735 L 1384.552 615.611 L 1587.374 615.611 L 1622.367 722.735 L 1738.062 722.735 L 1564.52 202.111 L 1407.405 202.111 Z  M 1561.664 530.626 L 1410.261 530.626 L 1454.54 397.792 L 1483.82 302.808 L 1488.105 302.808 L 1517.386 397.792 L 1561.664 530.626 Z  M 1920.265 729.162 L 1920.265 729.162 L 1920.265 729.162 Q 1964.543 729.162 1996.323 708.809 L 1996.323 708.809 L 1996.323 708.809 Q 2028.103 688.455 2041.672 655.604 L 2041.672 655.604 L 2047.386 655.604 L 2050.957 722.735 L 2152.367 722.735 L 2152.367 202.111 L 2047.386 202.111 L 2047.386 406.361 L 2041.672 406.361 L 2041.672 406.361 Q 2028.103 372.796 1996.323 352.799 L 1996.323 352.799 L 1996.323 352.799 Q 1964.543 332.803 1920.265 332.803 L 1920.265 332.803 L 1920.265 332.803 Q 1851.705 332.803 1809.57 382.437 L 1809.57 382.437 L 1809.57 382.437 Q 1767.434 432.071 1767.434 531.34 L 1767.434 531.34 L 1767.434 531.34 Q 1767.434 629.894 1809.57 679.528 L 1809.57 679.528 L 1809.57 679.528 Q 1851.705 729.162 1920.265 729.162 Z  M 1960.258 644.177 L 1960.258 644.177 L 1960.258 644.177 Q 1921.693 644.177 1898.126 616.682 L 1898.126 616.682 L 1898.126 616.682 Q 1874.559 589.187 1874.559 531.34 L 1874.559 531.34 L 1874.559 531.34 Q 1874.559 472.778 1898.126 445.283 L 1898.126 445.283 L 1898.126 445.283 Q 1921.693 417.788 1960.258 417.788 L 1960.258 417.788 L 1960.258 417.788 Q 1989.539 417.788 2008.464 431.357 L 2008.464 431.357 L 2008.464 431.357 Q 2027.389 444.926 2036.673 466.351 L 2036.673 466.351 L 2036.673 466.351 Q 2045.957 487.776 2045.957 512.772 L 2045.957 512.772 L 2045.957 549.194 L 2045.957 549.194 Q 2045.957 573.475 2036.673 595.257 L 2036.673 595.257 L 2036.673 595.257 Q 2027.389 617.039 2008.464 630.608 L 2008.464 630.608 L 2008.464 630.608 Q 1989.539 644.177 1960.258 644.177 Z  M 2383.848 729.162 L 2383.848 729.162 L 2383.848 729.162 Q 2428.126 729.162 2459.906 708.809 L 2459.906 708.809 L 2459.906 708.809 Q 2491.686 688.455 2505.255 655.604 L 2505.255 655.604 L 2510.969 655.604 L 2510.969 722.735 L 2615.95 722.735 L 2615.95 339.944 L 2515.254 339.944 L 2510.969 406.361 L 2505.255 406.361 L 2505.255 406.361 Q 2491.686 372.796 2459.906 352.799 L 2459.906 352.799 L 2459.906 352.799 Q 2428.126 332.803 2383.848 332.803 L 2383.848 332.803 L 2383.848 332.803 Q 2315.288 332.803 2273.153 382.437 L 2273.153 382.437 L 2273.153 382.437 Q 2231.017 432.071 2231.017 531.34 L 2231.017 531.34 L 2231.017 531.34 Q 2231.017 629.894 2273.153 679.528 L 2273.153 679.528 L 2273.153 679.528 Q 2315.288 729.162 2383.848 729.162 Z  M 2423.841 644.177 L 2423.841 644.177 L 2423.841 644.177 Q 2385.276 644.177 2361.709 616.682 L 2361.709 616.682 L 2361.709 616.682 Q 2338.142 589.187 2338.142 531.34 L 2338.142 531.34 L 2338.142 531.34 Q 2338.142 472.778 2361.709 445.283 L 2361.709 445.283 L 2361.709 445.283 Q 2385.276 417.788 2423.841 417.788 L 2423.841 417.788 L 2423.841 417.788 Q 2453.122 417.788 2472.047 431.357 L 2472.047 431.357 L 2472.047 431.357 Q 2490.972 444.926 2500.256 466.351 L 2500.256 466.351 L 2500.256 466.351 Q 2509.54 487.776 2509.54 512.772 L 2509.54 512.772 L 2509.54 549.194 L 2509.54 549.194 Q 2509.54 573.475 2500.256 595.257 L 2500.256 595.257 L 2500.256 595.257 Q 2490.972 617.039 2472.047 630.608 L 2472.047 630.608 L 2472.047 630.608 Q 2453.122 644.177 2423.841 644.177 Z  M 2717.454 339.944 L 2717.454 842 L 2822.435 842 L 2822.435 656.318 L 2828.149 656.318 L 2828.149 656.318 Q 2841.718 689.169 2873.498 709.523 L 2873.498 709.523 L 2873.498 709.523 Q 2905.278 729.877 2949.556 729.877 L 2949.556 729.877 L 2949.556 729.877 Q 3018.116 729.877 3060.608 679.885 L 3060.608 679.885 L 3060.608 679.885 Q 3103.101 629.894 3103.101 531.34 L 3103.101 531.34 L 3103.101 531.34 Q 3103.101 432.071 3060.608 382.437 L 3060.608 382.437 L 3060.608 382.437 Q 3018.116 332.803 2949.556 332.803 L 2949.556 332.803 L 2949.556 332.803 Q 2905.278 332.803 2873.498 352.799 L 2873.498 352.799 L 2873.498 352.799 Q 2841.718 372.796 2828.149 406.361 L 2828.149 406.361 L 2822.435 406.361 L 2818.864 339.944 L 2717.454 339.944 Z  M 2910.277 644.891 L 2910.277 644.891 L 2910.277 644.891 Q 2880.997 644.891 2861.714 631.322 L 2861.714 631.322 L 2861.714 631.322 Q 2842.432 617.753 2833.148 595.971 L 2833.148 595.971 L 2833.148 595.971 Q 2823.864 574.189 2823.864 549.908 L 2823.864 549.908 L 2823.864 512.772 L 2823.864 512.772 Q 2823.864 488.49 2833.148 466.708 L 2833.148 466.708 L 2833.148 466.708 Q 2842.432 444.926 2861.714 431.357 L 2861.714 431.357 L 2861.714 431.357 Q 2880.997 417.788 2910.277 417.788 L 2910.277 417.788 L 2910.277 417.788 Q 2948.842 417.788 2972.052 445.283 L 2972.052 445.283 L 2972.052 445.283 Q 2995.262 472.778 2995.262 531.34 L 2995.262 531.34 L 2995.262 531.34 Q 2995.262 589.901 2972.052 617.396 L 2972.052 617.396 L 2972.052 617.396 Q 2948.842 644.891 2910.277 644.891 Z  M 3307.443 722.735 L 3307.443 722.735 L 3391 722.735 L 3391 637.75 L 3344.58 637.75 L 3344.58 637.75 Q 3329.582 637.75 3321.726 632.037 L 3321.726 632.037 L 3321.726 632.037 Q 3313.871 626.323 3313.871 609.183 L 3313.871 609.183 L 3313.871 424.216 L 3391 424.216 L 3391 339.944 L 3313.871 339.944 L 3313.871 225.679 L 3209.603 235.677 L 3209.603 339.944 L 3141.043 339.944 L 3141.043 424.216 L 3209.603 424.216 L 3209.603 629.18 L 3209.603 629.18 Q 3209.603 657.746 3217.816 678.814 L 3217.816 678.814 L 3217.816 678.814 Q 3226.029 699.882 3247.454 711.308 L 3247.454 711.308 L 3247.454 711.308 Q 3268.878 722.735 3307.443 722.735 Z " fill-rule="evenodd" fill="rgb(255,255,255)"/></g><clipPath id="_clipPath_JFqBZd7l2rDx890OCsUKiddsULbBFb3J"><rect x="0" y="0" width="1024" height="1024" transform="matrix(1,0,0,1,0,0)" fill="rgb(255,255,255)"/></clipPath><g clip-path="url(#_clipPath_JFqBZd7l2rDx890OCsUKiddsULbBFb3J)"><g><g><linearGradient id="_lgradient_2" x1="1.6831930619768948e-7" y1="0.9999999458321479" x2="0.9976553345095407" y2="0.017585105329901762" gradientTransform="matrix(1024,0,0,1024,0,0)" gradientUnits="userSpaceOnUse"><stop offset="0%" stop-opacity="1" style="stop-color:rgb(5,134,255)"/><stop offset="100%" stop-opacity="1" style="stop-color:rgb(190,61,255)"/></linearGradient><path d=" M 562.644 236.489 L 562.644 236.489 C 610.832 264.31 627.367 326.02 599.546 374.207 L 400.15 719.57 C 372.329 767.758 310.619 784.293 262.432 756.472 L 262.432 756.472 C 214.244 728.651 197.709 666.941 225.53 618.754 L 424.926 273.39 C 452.747 225.203 514.456 208.668 562.644 236.489 L 562.644 236.489 Z  M 251.387 952.71 C 327.747 997.994 416.861 1024 512 1024 C 794.58 1024 1024 794.58 1024 512 C 1024 229.42 794.58 0 512 0 C 229.42 0 0 229.42 0 512 C 0 589.095 17.076 662.233 47.65 727.834 L 26.487 838.94 L 1.396 970.666 C -6.393 1011.561 19.198 1033.638 58.509 1019.937 L 185.132 975.803 L 251.387 952.71 L 251.387 952.71 Z  M 592.592 660.287 C 592.592 599.746 641.744 550.594 702.285 550.594 C 762.827 550.594 811.978 599.746 811.978 660.287 C 811.978 720.829 762.827 769.98 702.285 769.98 C 641.744 769.98 592.592 720.829 592.592 660.287 Z " fill-rule="evenodd" fill="url(#_lgradient_2)"/></g></g></g></g></svg>